<svg xmlns="http://www.w3.org/2000/svg" xmlns:xlink="http://www.w3.org/1999/xlink" width="1366" zoomAndPan="magnify" viewBox="0 0 1024.5 576" height="768" preserveAspectRatio="xMidYMid meet" version="1.0"><defs><g/><clipPath id="d8918f18eb"><path d="M 0 0.140625 L 1024 0.140625 L 1024 575.859375 L 0 575.859375 Z M 0 0.140625 " clip-rule="nonzero"/></clipPath><clipPath id="766bcc9fd7"><path d="M 776 239.335938 L 877 239.335938 L 877 375 L 776 375 Z M 776 239.335938 " clip-rule="nonzero"/></clipPath><clipPath id="359da4ab74"><path d="M 759.453125 270 L 829 270 L 829 305 L 759.453125 305 Z M 759.453125 270 " clip-rule="nonzero"/></clipPath><clipPath id="f06c26fe78"><path d="M 835 306 L 904.203125 306 L 904.203125 342 L 835 342 Z M 835 306 " clip-rule="nonzero"/></clipPath><clipPath id="7e6dc94512"><path d="M 759.453125 344 L 829 344 L 829 378.835938 L 759.453125 378.835938 Z M 759.453125 344 " clip-rule="nonzero"/></clipPath><clipPath id="e03bf9af51"><path d="M 413.070312 357.9375 L 494.070312 357.9375 L 494.070312 459.1875 L 413.070312 459.1875 Z M 413.070312 357.9375 " clip-rule="nonzero"/></clipPath></defs><g clip-path="url(#d8918f18eb)"><path fill="#ffffff" d="M 0 0.140625 L 1024.5 0.140625 L 1024.5 583.640625 L 0 583.640625 Z M 0 0.140625 " fill-opacity="1" fill-rule="nonzero"/><path fill="#ffffff" d="M 0 0.140625 L 1024.5 0.140625 L 1024.5 576.140625 L 0 576.140625 Z M 0 0.140625 " fill-opacity="1" fill-rule="nonzero"/><path fill="#275189" d="M 0 0.140625 L 1024.5 0.140625 L 1024.5 576.140625 L 0 576.140625 Z M 0 0.140625 " fill-opacity="1" fill-rule="nonzero"/></g><path fill="#103d79" d="M 859.53125 263.632812 L 793.722656 263.632812 C 792.804688 263.632812 792.0625 262.894531 792.0625 261.980469 C 792.0625 261.066406 792.804688 260.328125 793.722656 260.328125 L 859.535156 260.328125 C 860.449219 260.328125 861.191406 261.066406 861.191406 261.980469 C 861.191406 262.894531 860.445312 263.632812 859.53125 263.632812 Z M 859.53125 263.632812 " fill-opacity="1" fill-rule="evenodd"/><path fill="#103d79" d="M 859.53125 281.546875 L 826.875 281.546875 C 825.957031 281.546875 825.214844 280.804688 825.214844 279.894531 C 825.214844 278.980469 825.957031 278.242188 826.875 278.242188 L 859.535156 278.242188 C 860.449219 278.242188 861.191406 278.980469 861.191406 279.894531 C 861.191406 280.804688 860.445312 281.550781 859.53125 281.546875 Z M 859.53125 281.546875 " fill-opacity="1" fill-rule="evenodd"/><path fill="#103d79" d="M 859.53125 299.460938 L 826.875 299.460938 C 825.957031 299.460938 825.214844 298.722656 825.214844 297.808594 C 825.214844 296.898438 825.957031 296.15625 826.875 296.15625 L 859.535156 296.15625 C 860.449219 296.15625 861.191406 296.898438 861.191406 297.808594 C 861.191406 298.722656 860.445312 299.460938 859.53125 299.460938 Z M 859.53125 299.460938 " fill-opacity="1" fill-rule="evenodd"/><path fill="#103d79" d="M 807.246094 317.375 L 793.71875 317.375 C 792.800781 317.375 792.0625 316.636719 792.0625 315.722656 C 792.0625 314.8125 792.800781 314.070312 793.71875 314.070312 L 807.246094 314.070312 C 808.160156 314.070312 808.902344 314.8125 808.902344 315.722656 C 808.902344 316.636719 808.160156 317.375 807.246094 317.375 Z M 807.246094 317.375 " fill-opacity="1" fill-rule="evenodd"/><path fill="#103d79" d="M 859.53125 353.207031 L 827.265625 353.207031 C 826.351562 353.207031 825.609375 352.46875 825.609375 351.554688 C 825.609375 350.640625 826.351562 349.902344 827.265625 349.902344 L 859.53125 349.902344 C 860.445312 349.902344 861.1875 350.640625 861.1875 351.554688 C 861.191406 352.46875 860.445312 353.207031 859.53125 353.207031 Z M 859.53125 353.207031 " fill-opacity="1" fill-rule="evenodd"/><path fill="#103d79" d="M 836.78125 317.375 L 823.496094 317.375 C 822.582031 317.375 821.839844 316.636719 821.839844 315.722656 C 821.839844 314.8125 822.582031 314.070312 823.496094 314.070312 L 836.78125 314.070312 C 837.699219 314.070312 838.4375 314.8125 838.4375 315.722656 C 838.441406 316.636719 837.699219 317.375 836.78125 317.375 Z M 836.78125 317.375 " fill-opacity="1" fill-rule="evenodd"/><path fill="#103d79" d="M 826.628906 335.289062 L 793.71875 335.289062 C 792.804688 335.289062 792.0625 334.550781 792.0625 333.636719 C 792.0625 332.722656 792.804688 331.984375 793.71875 331.984375 L 826.625 331.984375 C 827.539062 331.984375 828.28125 332.722656 828.28125 333.636719 C 828.285156 334.550781 827.539062 335.289062 826.628906 335.289062 Z M 826.628906 335.289062 " fill-opacity="1" fill-rule="evenodd"/><g clip-path="url(#766bcc9fd7)"><path fill="#103d79" d="M 874.6875 310.191406 C 873.769531 310.191406 873.027344 309.449219 873.027344 308.539062 L 873.027344 251.394531 C 873.027344 246.582031 869.101562 242.660156 864.269531 242.660156 L 788.976562 242.660156 C 784.148438 242.660156 780.21875 246.578125 780.21875 251.394531 L 780.21875 271.710938 C 780.21875 272.625 779.476562 273.363281 778.5625 273.363281 C 777.648438 273.363281 776.90625 272.625 776.90625 271.710938 L 776.90625 251.394531 C 776.90625 244.757812 782.320312 239.355469 788.976562 239.355469 L 864.273438 239.355469 C 870.929688 239.355469 876.347656 244.757812 876.347656 251.394531 L 876.347656 308.539062 C 876.347656 309.449219 875.601562 310.191406 874.6875 310.191406 Z M 778.5625 347.722656 C 777.648438 347.722656 776.90625 346.980469 776.90625 346.070312 L 776.90625 302.796875 C 776.90625 301.882812 777.648438 301.144531 778.5625 301.144531 C 779.476562 301.144531 780.21875 301.882812 780.21875 302.796875 L 780.21875 346.070312 C 780.222656 346.980469 779.476562 347.722656 778.5625 347.722656 Z M 864.273438 374.175781 L 827.265625 374.175781 C 826.351562 374.175781 825.609375 373.4375 825.609375 372.523438 C 825.609375 371.609375 826.351562 370.871094 827.265625 370.871094 L 864.273438 370.871094 C 869.105469 370.871094 873.027344 366.953125 873.027344 362.136719 L 873.027344 339.621094 C 873.027344 338.710938 873.769531 337.96875 874.6875 337.96875 C 875.601562 337.96875 876.34375 338.710938 876.34375 339.621094 L 876.34375 362.136719 C 876.347656 368.773438 870.929688 374.175781 864.273438 374.175781 Z M 864.273438 374.175781 " fill-opacity="1" fill-rule="evenodd"/></g><path fill="#103d79" d="M 871.441406 333.671875 C 867.824219 333.671875 864.878906 331.238281 864.878906 328.246094 C 864.878906 327.332031 865.621094 326.59375 866.535156 326.59375 C 867.453125 326.59375 868.191406 327.332031 868.191406 328.246094 C 868.191406 329.375 869.710938 330.367188 871.441406 330.367188 C 873.171875 330.367188 874.6875 329.375 874.6875 328.246094 C 874.6875 327.09375 873.226562 326.464844 870.808594 325.558594 C 868.167969 324.566406 864.878906 323.328125 864.878906 319.90625 C 864.878906 316.910156 867.824219 314.476562 871.441406 314.476562 C 875.058594 314.476562 878.003906 316.910156 878.003906 319.90625 C 878.003906 320.820312 877.265625 321.558594 876.347656 321.558594 C 875.429688 321.558594 874.6875 320.820312 874.6875 319.90625 C 874.6875 318.773438 873.171875 317.78125 871.441406 317.78125 C 869.710938 317.78125 868.191406 318.773438 868.191406 319.90625 C 868.191406 320.964844 869.691406 321.605469 871.976562 322.464844 C 874.664062 323.472656 878.003906 324.730469 878.003906 328.246094 C 878.007812 331.238281 875.058594 333.671875 871.441406 333.671875 Z M 871.441406 333.671875 " fill-opacity="1" fill-rule="evenodd"/><path fill="#103d79" d="M 854.808594 333.671875 C 849.296875 333.671875 844.8125 329.367188 844.8125 324.074219 C 844.8125 318.78125 849.292969 314.476562 854.808594 314.476562 C 856.957031 314.476562 859.085938 315.15625 860.804688 316.394531 C 861.546875 316.925781 861.714844 317.960938 861.179688 318.703125 C 860.644531 319.441406 859.609375 319.609375 858.867188 319.074219 C 857.710938 318.238281 856.265625 317.78125 854.808594 317.78125 C 851.128906 317.78125 848.128906 320.605469 848.128906 324.074219 C 848.128906 327.542969 851.128906 330.367188 854.808594 330.367188 C 856.269531 330.367188 857.710938 329.910156 858.867188 329.074219 C 859.609375 328.542969 860.644531 328.707031 861.179688 329.449219 C 861.714844 330.1875 861.546875 331.222656 860.804688 331.753906 C 859.085938 332.992188 856.957031 333.671875 854.808594 333.671875 Z M 854.808594 333.671875 " fill-opacity="1" fill-rule="evenodd"/><path fill="#103d79" d="M 887.953125 333.671875 C 884.339844 333.671875 881.390625 331.238281 881.390625 328.246094 C 881.390625 327.332031 882.128906 326.59375 883.046875 326.59375 C 883.960938 326.59375 884.703125 327.332031 884.703125 328.246094 C 884.703125 329.375 886.222656 330.367188 887.949219 330.367188 C 889.683594 330.367188 891.199219 329.375 891.199219 328.246094 C 891.199219 327.09375 889.734375 326.464844 887.316406 325.558594 C 884.675781 324.566406 881.390625 323.328125 881.390625 319.90625 C 881.390625 316.910156 884.335938 314.476562 887.949219 314.476562 C 891.570312 314.476562 894.511719 316.910156 894.511719 319.90625 C 894.511719 320.820312 893.773438 321.558594 892.855469 321.558594 C 891.941406 321.558594 891.199219 320.820312 891.199219 319.90625 C 891.199219 318.773438 889.683594 317.78125 887.949219 317.78125 C 886.222656 317.78125 884.703125 318.773438 884.703125 319.90625 C 884.703125 320.964844 886.203125 321.605469 888.484375 322.464844 C 891.171875 323.472656 894.511719 324.730469 894.511719 328.246094 C 894.519531 331.238281 891.574219 333.671875 887.953125 333.671875 Z M 887.953125 333.671875 " fill-opacity="1" fill-rule="evenodd"/><path fill="#103d79" d="M 767.890625 295.265625 C 766.976562 295.265625 766.234375 294.523438 766.234375 293.613281 L 766.234375 280.90625 C 766.234375 279.992188 766.976562 279.253906 767.890625 279.253906 C 768.808594 279.253906 769.550781 279.992188 769.550781 280.90625 L 769.550781 293.613281 C 769.550781 294.523438 768.808594 295.265625 767.890625 295.265625 Z M 767.890625 295.265625 " fill-opacity="1" fill-rule="evenodd"/><path fill="#103d79" d="M 775.785156 295.265625 C 774.871094 295.265625 774.128906 294.523438 774.128906 293.613281 L 774.128906 280.90625 C 774.128906 279.992188 774.871094 279.253906 775.785156 279.253906 C 776.703125 279.253906 777.445312 279.992188 777.445312 280.90625 L 777.445312 293.613281 C 777.445312 294.523438 776.703125 295.265625 775.785156 295.265625 Z M 775.785156 295.265625 " fill-opacity="1" fill-rule="evenodd"/><path fill="#103d79" d="M 775.785156 288.898438 L 767.890625 288.898438 C 766.976562 288.898438 766.234375 288.160156 766.234375 287.246094 C 766.234375 286.332031 766.976562 285.59375 767.890625 285.59375 L 775.785156 285.59375 C 776.703125 285.59375 777.445312 286.332031 777.445312 287.246094 C 777.445312 288.160156 776.703125 288.898438 775.785156 288.898438 Z M 775.785156 288.898438 " fill-opacity="1" fill-rule="evenodd"/><path fill="#103d79" d="M 806.632812 295.265625 C 805.71875 295.265625 804.976562 294.523438 804.976562 293.613281 L 804.976562 289.101562 L 802.808594 294.253906 C 802.546875 294.867188 801.949219 295.265625 801.277344 295.265625 C 800.613281 295.265625 800.007812 294.867188 799.75 294.253906 L 797.582031 289.101562 L 797.582031 293.613281 C 797.582031 294.523438 796.839844 295.265625 795.921875 295.265625 C 795.007812 295.265625 794.265625 294.523438 794.265625 293.613281 L 794.265625 280.902344 C 794.265625 280.113281 794.820312 279.433594 795.59375 279.28125 C 796.371094 279.125 797.148438 279.535156 797.453125 280.261719 L 801.28125 289.347656 L 805.105469 280.261719 C 805.414062 279.535156 806.191406 279.128906 806.960938 279.28125 C 807.734375 279.4375 808.292969 280.117188 808.292969 280.902344 L 808.292969 293.613281 C 808.292969 294.523438 807.546875 295.265625 806.632812 295.265625 Z M 806.632812 295.265625 " fill-opacity="1" fill-rule="evenodd"/><path fill="#103d79" d="M 820.089844 295.265625 L 811.34375 295.265625 C 810.429688 295.265625 809.6875 294.523438 809.6875 293.613281 L 809.6875 280.90625 C 809.6875 279.992188 810.429688 279.253906 811.34375 279.253906 C 812.257812 279.253906 813 279.992188 813 280.90625 L 813 291.957031 L 820.089844 291.957031 C 821.007812 291.957031 821.75 292.699219 821.75 293.613281 C 821.75 294.523438 821.007812 295.265625 820.089844 295.265625 Z M 820.089844 295.265625 " fill-opacity="1" fill-rule="evenodd"/><path fill="#103d79" d="M 791.210938 282.554688 L 780.5 282.554688 C 779.582031 282.554688 778.84375 281.8125 778.84375 280.902344 C 778.84375 279.988281 779.582031 279.25 780.5 279.25 L 791.210938 279.25 C 792.125 279.25 792.867188 279.988281 792.867188 280.902344 C 792.867188 281.8125 792.125 282.554688 791.210938 282.554688 Z M 791.210938 282.554688 " fill-opacity="1" fill-rule="evenodd"/><path fill="#103d79" d="M 785.855469 295.265625 C 784.941406 295.265625 784.199219 294.523438 784.199219 293.613281 L 784.199219 280.90625 C 784.199219 279.992188 784.941406 279.253906 785.855469 279.253906 C 786.773438 279.253906 787.511719 279.992188 787.511719 280.90625 L 787.511719 293.613281 C 787.511719 294.523438 786.773438 295.265625 785.855469 295.265625 Z M 785.855469 295.265625 " fill-opacity="1" fill-rule="evenodd"/><path fill="#103d79" d="M 785.074219 371.929688 C 781.113281 371.929688 777.894531 368.78125 777.894531 364.910156 C 777.894531 363.996094 778.632812 363.257812 779.550781 363.257812 C 780.464844 363.257812 781.207031 363.996094 781.207031 364.910156 C 781.207031 366.957031 782.9375 368.625 785.070312 368.625 C 787.203125 368.625 788.941406 366.960938 788.941406 364.910156 L 788.941406 352.949219 C 788.941406 352.039062 789.683594 351.296875 790.597656 351.296875 C 791.511719 351.296875 792.253906 352.039062 792.253906 352.949219 L 792.253906 364.910156 C 792.253906 368.78125 789.03125 371.929688 785.074219 371.929688 Z M 785.074219 371.929688 " fill-opacity="1" fill-rule="evenodd"/><path fill="#103d79" d="M 803.875 371.929688 C 800.015625 371.929688 796.871094 369.34375 796.871094 366.160156 C 796.871094 365.246094 797.613281 364.507812 798.527344 364.507812 C 799.445312 364.507812 800.183594 365.246094 800.183594 366.160156 C 800.183594 367.496094 801.875 368.621094 803.875 368.621094 C 805.875 368.621094 807.5625 367.492188 807.5625 366.160156 C 807.5625 364.816406 805.925781 364.105469 803.234375 363.09375 C 800.398438 362.027344 796.867188 360.699219 796.867188 357.074219 C 796.867188 353.890625 800.011719 351.304688 803.875 351.304688 C 807.734375 351.304688 810.878906 353.890625 810.878906 357.074219 C 810.878906 357.988281 810.136719 358.726562 809.222656 358.726562 C 808.304688 358.726562 807.566406 357.988281 807.566406 357.074219 C 807.566406 355.738281 805.875 354.613281 803.875 354.613281 C 801.878906 354.613281 800.1875 355.742188 800.1875 357.074219 C 800.1875 358.324219 801.78125 359.015625 804.40625 360 C 807.296875 361.082031 810.882812 362.433594 810.882812 366.164062 C 810.882812 369.34375 807.738281 371.929688 803.875 371.929688 Z M 803.875 371.929688 " fill-opacity="1" fill-rule="evenodd"/><g clip-path="url(#359da4ab74)"><path fill="#103d79" d="M 762.765625 301.144531 L 825.214844 301.144531 L 825.214844 273.363281 L 762.765625 273.363281 Z M 826.875 304.449219 L 761.109375 304.449219 C 760.195312 304.449219 759.453125 303.710938 759.453125 302.796875 L 759.453125 271.710938 C 759.453125 270.796875 760.195312 270.058594 761.109375 270.058594 L 826.875 270.058594 C 827.789062 270.058594 828.53125 270.796875 828.53125 271.710938 L 828.53125 302.796875 C 828.53125 303.710938 827.789062 304.449219 826.875 304.449219 Z M 826.875 304.449219 " fill-opacity="1" fill-rule="evenodd"/></g><g clip-path="url(#f06c26fe78)"><path fill="#103d79" d="M 838.441406 337.96875 L 900.890625 337.96875 L 900.890625 310.191406 L 838.441406 310.191406 Z M 902.546875 341.273438 L 836.78125 341.273438 C 835.867188 341.273438 835.125 340.535156 835.125 339.621094 L 835.125 308.535156 C 835.125 307.621094 835.867188 306.882812 836.78125 306.882812 L 902.546875 306.882812 C 903.460938 306.882812 904.203125 307.621094 904.203125 308.535156 L 904.203125 339.621094 C 904.203125 340.535156 903.460938 341.277344 902.546875 341.273438 Z M 902.546875 341.273438 " fill-opacity="1" fill-rule="evenodd"/></g><g clip-path="url(#7e6dc94512)"><path fill="#103d79" d="M 763.160156 375.503906 L 825.609375 375.503906 L 825.609375 347.722656 L 763.160156 347.722656 C 763.160156 347.722656 763.160156 375.503906 763.160156 375.503906 Z M 827.265625 378.808594 L 761.503906 378.808594 C 760.589844 378.808594 759.847656 378.070312 759.847656 377.15625 L 759.847656 346.070312 C 759.847656 345.15625 760.589844 344.417969 761.503906 344.417969 L 827.265625 344.417969 C 828.1875 344.417969 828.925781 345.15625 828.925781 346.070312 L 828.925781 377.15625 C 828.925781 378.070312 828.1875 378.808594 827.265625 378.808594 Z M 827.265625 378.808594 " fill-opacity="1" fill-rule="evenodd"/></g><path fill="#103d79" d="M 281 184.96875 C 281 185.480469 280.949219 185.988281 280.847656 186.492188 C 280.75 186.996094 280.601562 187.484375 280.40625 187.957031 C 280.207031 188.429688 279.96875 188.882812 279.683594 189.308594 C 279.398438 189.734375 279.074219 190.128906 278.710938 190.492188 C 278.347656 190.851562 277.953125 191.175781 277.527344 191.460938 C 277.101562 191.746094 276.652344 191.988281 276.179688 192.183594 C 275.703125 192.378906 275.214844 192.527344 274.714844 192.628906 C 274.210938 192.726562 273.703125 192.777344 273.1875 192.777344 C 272.675781 192.777344 272.167969 192.726562 271.664062 192.628906 C 271.164062 192.527344 270.675781 192.378906 270.199219 192.183594 C 269.726562 191.988281 269.277344 191.746094 268.851562 191.460938 C 268.421875 191.175781 268.027344 190.851562 267.667969 190.492188 C 267.304688 190.128906 266.980469 189.734375 266.695312 189.308594 C 266.410156 188.882812 266.167969 188.429688 265.972656 187.957031 C 265.777344 187.484375 265.628906 186.996094 265.527344 186.492188 C 265.429688 185.988281 265.378906 185.480469 265.378906 184.96875 C 265.378906 184.457031 265.429688 183.949219 265.527344 183.445312 C 265.628906 182.941406 265.777344 182.453125 265.972656 181.980469 C 266.167969 181.503906 266.410156 181.054688 266.695312 180.628906 C 266.980469 180.203125 267.304688 179.808594 267.667969 179.445312 C 268.027344 179.082031 268.421875 178.757812 268.851562 178.472656 C 269.277344 178.1875 269.726562 177.949219 270.199219 177.753906 C 270.675781 177.554688 271.164062 177.40625 271.664062 177.308594 C 272.167969 177.207031 272.675781 177.15625 273.1875 177.15625 C 273.703125 177.15625 274.210938 177.207031 274.714844 177.308594 C 275.214844 177.40625 275.703125 177.554688 276.179688 177.753906 C 276.652344 177.949219 277.101562 178.1875 277.527344 178.472656 C 277.953125 178.757812 278.347656 179.082031 278.710938 179.445312 C 279.074219 179.808594 279.398438 180.203125 279.683594 180.628906 C 279.96875 181.054688 280.207031 181.503906 280.40625 181.980469 C 280.601562 182.453125 280.75 182.941406 280.847656 183.445312 C 280.949219 183.949219 281 184.457031 281 184.96875 Z M 281 184.96875 " fill-opacity="1" fill-rule="nonzero"/><path fill="#103d79" d="M 265.378906 169.347656 C 265.378906 169.859375 265.328125 170.367188 265.230469 170.871094 C 265.128906 171.375 264.980469 171.863281 264.785156 172.335938 C 264.589844 172.808594 264.347656 173.261719 264.0625 173.6875 C 263.777344 174.113281 263.453125 174.507812 263.089844 174.871094 C 262.730469 175.234375 262.335938 175.558594 261.90625 175.839844 C 261.480469 176.125 261.03125 176.367188 260.558594 176.5625 C 260.082031 176.757812 259.59375 176.90625 259.09375 177.007812 C 258.589844 177.109375 258.082031 177.15625 257.570312 177.15625 C 257.054688 177.15625 256.546875 177.109375 256.046875 177.007812 C 255.542969 176.90625 255.054688 176.757812 254.578125 176.5625 C 254.105469 176.367188 253.65625 176.125 253.230469 175.839844 C 252.804688 175.558594 252.410156 175.234375 252.046875 174.871094 C 251.683594 174.507812 251.359375 174.113281 251.074219 173.6875 C 250.789062 173.261719 250.550781 172.808594 250.351562 172.335938 C 250.15625 171.863281 250.007812 171.375 249.910156 170.871094 C 249.808594 170.367188 249.757812 169.859375 249.757812 169.347656 C 249.757812 168.835938 249.808594 168.328125 249.910156 167.824219 C 250.007812 167.320312 250.15625 166.832031 250.351562 166.359375 C 250.550781 165.886719 250.789062 165.433594 251.074219 165.007812 C 251.359375 164.582031 251.683594 164.1875 252.046875 163.824219 C 252.410156 163.460938 252.804688 163.140625 253.230469 162.855469 C 253.65625 162.570312 254.105469 162.328125 254.578125 162.132812 C 255.054688 161.9375 255.542969 161.789062 256.046875 161.6875 C 256.546875 161.585938 257.054688 161.539062 257.570312 161.539062 C 258.082031 161.539062 258.589844 161.585938 259.09375 161.6875 C 259.59375 161.789062 260.082031 161.9375 260.558594 162.132812 C 261.03125 162.328125 261.480469 162.570312 261.90625 162.855469 C 262.335938 163.140625 262.730469 163.460938 263.089844 163.824219 C 263.453125 164.1875 263.777344 164.582031 264.0625 165.007812 C 264.347656 165.433594 264.589844 165.886719 264.785156 166.359375 C 264.980469 166.832031 265.128906 167.320312 265.230469 167.824219 C 265.328125 168.328125 265.378906 168.835938 265.378906 169.347656 Z M 265.378906 169.347656 " fill-opacity="1" fill-rule="nonzero"/><path fill="#103d79" d="M 265.378906 200.589844 C 265.378906 201.101562 265.328125 201.609375 265.230469 202.113281 C 265.128906 202.617188 264.980469 203.105469 264.785156 203.578125 C 264.589844 204.050781 264.347656 204.5 264.0625 204.929688 C 263.777344 205.355469 263.453125 205.75 263.089844 206.109375 C 262.730469 206.472656 262.335938 206.796875 261.90625 207.082031 C 261.480469 207.367188 261.03125 207.609375 260.558594 207.804688 C 260.082031 208 259.59375 208.148438 259.09375 208.25 C 258.589844 208.347656 258.082031 208.398438 257.570312 208.398438 C 257.054688 208.398438 256.546875 208.347656 256.046875 208.25 C 255.542969 208.148438 255.054688 208 254.578125 207.804688 C 254.105469 207.609375 253.65625 207.367188 253.230469 207.082031 C 252.804688 206.796875 252.410156 206.472656 252.046875 206.109375 C 251.683594 205.75 251.359375 205.355469 251.074219 204.929688 C 250.789062 204.5 250.550781 204.050781 250.351562 203.578125 C 250.15625 203.105469 250.007812 202.617188 249.910156 202.113281 C 249.808594 201.609375 249.757812 201.101562 249.757812 200.589844 C 249.757812 200.074219 249.808594 199.566406 249.910156 199.066406 C 250.007812 198.5625 250.15625 198.074219 250.351562 197.601562 C 250.550781 197.125 250.789062 196.675781 251.074219 196.25 C 251.359375 195.824219 251.683594 195.429688 252.046875 195.066406 C 252.410156 194.703125 252.804688 194.378906 253.230469 194.09375 C 253.65625 193.808594 254.105469 193.570312 254.578125 193.371094 C 255.054688 193.175781 255.542969 193.027344 256.046875 192.929688 C 256.546875 192.828125 257.054688 192.777344 257.570312 192.777344 C 258.082031 192.777344 258.589844 192.828125 259.09375 192.929688 C 259.59375 193.027344 260.082031 193.175781 260.558594 193.371094 C 261.03125 193.570312 261.480469 193.808594 261.90625 194.09375 C 262.335938 194.378906 262.730469 194.703125 263.089844 195.066406 C 263.453125 195.429688 263.777344 195.824219 264.0625 196.25 C 264.347656 196.675781 264.589844 197.125 264.785156 197.601562 C 264.980469 198.074219 265.128906 198.5625 265.230469 199.066406 C 265.328125 199.566406 265.378906 200.074219 265.378906 200.589844 Z M 265.378906 200.589844 " fill-opacity="1" fill-rule="nonzero"/><path fill="#103d79" d="M 257.570312 200.589844 C 257.050781 200.589844 256.554688 200.488281 256.074219 200.292969 C 255.597656 200.09375 255.171875 199.8125 254.808594 199.445312 C 254.441406 199.078125 254.160156 198.65625 253.960938 198.179688 C 253.761719 197.699219 253.664062 197.203125 253.664062 196.683594 L 253.664062 173.253906 C 253.664062 172.734375 253.761719 172.238281 253.960938 171.757812 C 254.160156 171.28125 254.441406 170.859375 254.808594 170.492188 C 255.171875 170.125 255.597656 169.84375 256.074219 169.644531 C 256.554688 169.445312 257.050781 169.347656 257.570312 169.347656 C 258.085938 169.347656 258.585938 169.445312 259.0625 169.644531 C 259.542969 169.84375 259.964844 170.125 260.332031 170.492188 C 260.695312 170.859375 260.980469 171.28125 261.175781 171.757812 C 261.375 172.238281 261.472656 172.734375 261.472656 173.253906 L 261.472656 196.683594 C 261.472656 197.203125 261.375 197.699219 261.175781 198.179688 C 260.980469 198.65625 260.695312 199.078125 260.332031 199.445312 C 259.964844 199.8125 259.542969 200.09375 259.0625 200.292969 C 258.585938 200.488281 258.085938 200.589844 257.570312 200.589844 Z M 257.570312 200.589844 " fill-opacity="1" fill-rule="nonzero"/><path fill="#103d79" d="M 269.285156 184.96875 C 268.203125 184.96875 267.285156 184.589844 266.523438 183.824219 L 258.714844 176.015625 C 258.355469 175.644531 258.085938 175.222656 257.894531 174.75 C 257.707031 174.273438 257.613281 173.777344 257.617188 173.265625 C 257.621094 172.753906 257.722656 172.261719 257.921875 171.789062 C 258.117188 171.320312 258.398438 170.902344 258.761719 170.539062 C 259.121094 170.175781 259.539062 169.898438 260.011719 169.699219 C 260.484375 169.5 260.976562 169.398438 261.488281 169.394531 C 262 169.390625 262.492188 169.484375 262.96875 169.671875 C 263.445312 169.863281 263.867188 170.136719 264.234375 170.492188 L 272.046875 178.300781 C 272.316406 178.574219 272.546875 178.882812 272.726562 179.222656 C 272.910156 179.5625 273.039062 179.921875 273.113281 180.300781 C 273.1875 180.679688 273.207031 181.0625 273.167969 181.445312 C 273.132812 181.832031 273.039062 182.199219 272.890625 182.558594 C 272.742188 182.914062 272.546875 183.242188 272.300781 183.539062 C 272.058594 183.839844 271.773438 184.09375 271.453125 184.308594 C 271.132812 184.523438 270.785156 184.6875 270.417969 184.800781 C 270.046875 184.910156 269.671875 184.96875 269.285156 184.96875 Z M 269.285156 184.96875 " fill-opacity="1" fill-rule="nonzero"/><path fill="#103d79" d="M 253.664062 169.347656 C 252.585938 169.351562 251.664062 168.96875 250.902344 168.203125 L 243.484375 160.785156 C 243.128906 160.414062 242.855469 159.992188 242.664062 159.519531 C 242.476562 159.042969 242.382812 158.550781 242.386719 158.035156 C 242.390625 157.523438 242.492188 157.03125 242.691406 156.5625 C 242.886719 156.089844 243.167969 155.671875 243.53125 155.308594 C 243.894531 154.949219 244.308594 154.667969 244.78125 154.46875 C 245.253906 154.273438 245.746094 154.171875 246.257812 154.164062 C 246.769531 154.160156 247.265625 154.253906 247.738281 154.445312 C 248.214844 154.632812 248.636719 154.90625 249.003906 155.261719 L 256.425781 162.683594 C 256.699219 162.953125 256.925781 163.261719 257.105469 163.601562 C 257.289062 163.941406 257.417969 164.300781 257.492188 164.679688 C 257.566406 165.058594 257.585938 165.441406 257.550781 165.824219 C 257.511719 166.210938 257.417969 166.582031 257.269531 166.9375 C 257.125 167.292969 256.925781 167.621094 256.683594 167.917969 C 256.4375 168.21875 256.152344 168.476562 255.832031 168.6875 C 255.511719 168.902344 255.167969 169.066406 254.796875 169.179688 C 254.425781 169.292969 254.050781 169.347656 253.664062 169.347656 Z M 253.664062 169.347656 " fill-opacity="1" fill-rule="nonzero"/><path fill="#103d79" d="M 257.570312 223.964844 C 255.960938 223.980469 254.414062 223.691406 252.921875 223.097656 C 251.429688 222.503906 250.105469 221.648438 248.949219 220.53125 L 222.003906 193.585938 C 221.460938 193.011719 220.972656 192.386719 220.546875 191.71875 C 220.117188 191.046875 219.757812 190.34375 219.464844 189.605469 C 219.167969 188.867188 218.949219 188.109375 218.796875 187.328125 C 218.648438 186.550781 218.574219 185.761719 218.574219 184.96875 C 218.574219 184.175781 218.648438 183.386719 218.796875 182.605469 C 218.949219 181.828125 219.167969 181.066406 219.464844 180.328125 C 219.757812 179.59375 220.117188 178.886719 220.546875 178.21875 C 220.972656 177.550781 221.460938 176.925781 222.003906 176.351562 L 248.949219 149.40625 C 249.527344 148.859375 250.148438 148.371094 250.820312 147.945312 C 251.488281 147.515625 252.191406 147.15625 252.929688 146.863281 C 253.667969 146.566406 254.429688 146.347656 255.207031 146.195312 C 255.988281 146.046875 256.777344 145.972656 257.570312 145.972656 C 258.363281 145.972656 259.152344 146.046875 259.929688 146.195312 C 260.710938 146.347656 261.472656 146.566406 262.207031 146.863281 C 262.945312 147.15625 263.652344 147.515625 264.320312 147.945312 C 264.988281 148.371094 265.613281 148.859375 266.1875 149.40625 L 293.132812 176.351562 C 293.679688 176.925781 294.167969 177.550781 294.59375 178.21875 C 295.023438 178.886719 295.382812 179.59375 295.675781 180.328125 C 295.96875 181.066406 296.191406 181.828125 296.339844 182.605469 C 296.492188 183.386719 296.566406 184.175781 296.566406 184.96875 C 296.566406 185.761719 296.492188 186.550781 296.339844 187.328125 C 296.191406 188.109375 295.96875 188.867188 295.675781 189.605469 C 295.382812 190.34375 295.023438 191.046875 294.59375 191.71875 C 294.167969 192.386719 293.679688 193.011719 293.132812 193.585938 L 266.1875 220.53125 C 265.035156 221.648438 263.710938 222.503906 262.21875 223.097656 C 260.726562 223.691406 259.175781 223.980469 257.570312 223.964844 Z M 257.570312 153.78125 C 256.382812 153.742188 255.351562 154.125 254.472656 154.925781 L 227.527344 181.871094 C 227.160156 182.304688 226.878906 182.785156 226.679688 183.316406 C 226.484375 183.851562 226.386719 184.402344 226.386719 184.96875 C 226.386719 185.535156 226.484375 186.085938 226.679688 186.617188 C 226.878906 187.152344 227.160156 187.632812 227.527344 188.066406 L 254.472656 215.011719 C 254.914062 215.363281 255.398438 215.632812 255.929688 215.820312 C 256.460938 216.007812 257.007812 216.101562 257.570312 216.101562 C 258.132812 216.101562 258.679688 216.007812 259.210938 215.820312 C 259.742188 215.632812 260.226562 215.363281 260.664062 215.011719 L 287.609375 188.066406 C 287.976562 187.632812 288.261719 187.152344 288.457031 186.617188 C 288.652344 186.085938 288.75 185.535156 288.75 184.96875 C 288.75 184.402344 288.652344 183.851562 288.457031 183.316406 C 288.261719 182.785156 287.976562 182.304688 287.609375 181.871094 L 260.664062 154.925781 C 259.785156 154.125 258.753906 153.742188 257.570312 153.78125 Z M 257.570312 153.78125 " fill-opacity="1" fill-rule="nonzero"/><g clip-path="url(#e03bf9af51)"><path fill="#103d79" d="M 482.257812 455.8125 L 424.882812 455.8125 C 420.230469 455.8125 416.445312 452.027344 416.445312 447.375 L 416.445312 432.1875 L 490.695312 432.1875 L 490.695312 447.375 C 490.695312 452.027344 486.910156 455.8125 482.257812 455.8125 Z M 424.882812 361.316406 L 470.445312 361.316406 L 470.445312 369.753906 C 470.445312 376.265625 475.746094 381.566406 482.257812 381.566406 L 490.695312 381.566406 L 490.695312 428.8125 L 416.445312 428.8125 L 416.445312 369.753906 C 416.445312 365.101562 420.230469 361.316406 424.882812 361.316406 Z M 473.820312 363.703125 L 488.308594 378.191406 L 482.257812 378.191406 C 477.605469 378.191406 473.820312 374.40625 473.820312 369.753906 Z M 473.324219 358.4375 C 473.007812 358.121094 472.582031 357.941406 472.132812 357.941406 L 424.882812 357.941406 C 418.371094 357.941406 413.070312 363.242188 413.070312 369.753906 L 413.070312 447.375 C 413.070312 453.886719 418.371094 459.1875 424.882812 459.1875 L 482.257812 459.1875 C 488.769531 459.1875 494.070312 453.886719 494.070312 447.375 L 494.070312 379.878906 C 494.070312 379.429688 493.890625 379 493.574219 378.683594 L 473.324219 358.4375 " fill-opacity="1" fill-rule="nonzero"/></g><path fill="#103d79" d="M 467.070312 442.3125 L 465.382812 442.3125 L 465.382812 438.9375 L 467.070312 438.9375 C 468 438.9375 468.757812 439.695312 468.757812 440.625 C 468.757812 441.554688 468 442.3125 467.070312 442.3125 Z M 467.070312 435.5625 L 463.695312 435.5625 C 462.761719 435.5625 462.007812 436.316406 462.007812 437.25 L 462.007812 450.75 C 462.007812 451.679688 462.761719 452.4375 463.695312 452.4375 C 464.628906 452.4375 465.382812 451.679688 465.382812 450.75 L 465.382812 445.6875 L 467.070312 445.6875 C 469.863281 445.6875 472.132812 443.417969 472.132812 440.625 C 472.132812 437.832031 469.863281 435.5625 467.070312 435.5625 " fill-opacity="1" fill-rule="nonzero"/><path fill="#103d79" d="M 440.070312 442.3125 L 438.382812 442.3125 L 438.382812 438.9375 L 440.070312 438.9375 C 441 438.9375 441.757812 439.695312 441.757812 440.625 C 441.757812 441.554688 441 442.3125 440.070312 442.3125 Z M 440.070312 435.5625 L 436.695312 435.5625 C 435.761719 435.5625 435.007812 436.316406 435.007812 437.25 L 435.007812 450.75 C 435.007812 451.679688 435.761719 452.4375 436.695312 452.4375 C 437.628906 452.4375 438.382812 451.679688 438.382812 450.75 L 438.382812 445.6875 L 440.070312 445.6875 C 442.863281 445.6875 445.132812 443.417969 445.132812 440.625 C 445.132812 437.832031 442.863281 435.5625 440.070312 435.5625 " fill-opacity="1" fill-rule="nonzero"/><path fill="#103d79" d="M 456.945312 435.5625 C 456.011719 435.5625 455.257812 436.316406 455.257812 437.25 L 455.257812 442.3125 L 451.882812 442.3125 L 451.882812 437.25 C 451.882812 436.316406 451.128906 435.5625 450.195312 435.5625 C 449.261719 435.5625 448.507812 436.316406 448.507812 437.25 L 448.507812 450.75 C 448.507812 451.679688 449.261719 452.4375 450.195312 452.4375 C 451.128906 452.4375 451.882812 451.679688 451.882812 450.75 L 451.882812 445.6875 L 455.257812 445.6875 L 455.257812 450.75 C 455.257812 451.679688 456.011719 452.4375 456.945312 452.4375 C 457.878906 452.4375 458.632812 451.679688 458.632812 450.75 L 458.632812 437.25 C 458.632812 436.316406 457.878906 435.5625 456.945312 435.5625 " fill-opacity="1" fill-rule="nonzero"/><path fill="#103d79" d="M 438.878906 411.445312 C 439.207031 411.773438 439.636719 411.9375 440.070312 411.9375 C 440.503906 411.9375 440.933594 411.773438 441.261719 411.445312 C 441.921875 410.785156 441.921875 409.71875 441.261719 409.058594 L 432.332031 400.128906 L 441.261719 391.195312 C 441.921875 390.535156 441.921875 389.46875 441.261719 388.808594 C 440.605469 388.152344 439.535156 388.152344 438.878906 388.808594 L 428.753906 398.933594 C 428.09375 399.59375 428.09375 400.660156 428.753906 401.320312 L 438.878906 411.445312 " fill-opacity="1" fill-rule="nonzero"/><path fill="#103d79" d="M 465.878906 411.445312 C 466.207031 411.773438 466.636719 411.9375 467.070312 411.9375 C 467.503906 411.9375 467.933594 411.773438 468.261719 411.445312 L 478.386719 401.320312 C 479.046875 400.660156 479.046875 399.59375 478.386719 398.933594 L 468.261719 388.808594 C 467.605469 388.152344 466.535156 388.152344 465.878906 388.808594 C 465.21875 389.46875 465.21875 390.535156 465.878906 391.195312 L 474.808594 400.128906 L 465.878906 409.058594 C 465.21875 409.71875 465.21875 410.785156 465.878906 411.445312 " fill-opacity="1" fill-rule="nonzero"/><path fill="#103d79" d="M 453.570312 411.9375 C 452.636719 411.9375 451.882812 412.695312 451.882812 413.625 C 451.882812 414.558594 452.636719 415.3125 453.570312 415.3125 C 454.503906 415.3125 455.257812 414.558594 455.257812 413.625 C 455.257812 412.695312 454.503906 411.9375 453.570312 411.9375 " fill-opacity="1" fill-rule="nonzero"/><path fill="#103d79" d="M 446.820312 395.066406 C 447.753906 395.066406 448.507812 394.308594 448.507812 393.378906 C 448.507812 390.585938 450.777344 388.316406 453.570312 388.316406 C 456.363281 388.316406 458.632812 390.585938 458.632812 393.378906 C 458.632812 396.167969 456.363281 398.441406 453.570312 398.441406 C 452.636719 398.441406 451.882812 399.195312 451.882812 400.128906 L 451.882812 406.875 C 451.882812 407.808594 452.636719 408.5625 453.570312 408.5625 C 454.503906 408.5625 455.257812 407.808594 455.257812 406.875 L 455.257812 401.644531 C 459.105469 400.859375 462.007812 397.453125 462.007812 393.378906 C 462.007812 388.726562 458.222656 384.941406 453.570312 384.941406 C 448.917969 384.941406 445.132812 388.726562 445.132812 393.378906 C 445.132812 394.308594 445.886719 395.066406 446.820312 395.066406 " fill-opacity="1" fill-rule="nonzero"/><g fill="#103d79" fill-opacity="1"><g transform="translate(18.296085, 363.399689)"><g><path d="M 23.5625 -17.625 L 10.53125 -12.6875 L 23.5625 -7.28125 L 23.5625 -0.5 L 3.296875 -9.78125 L 3.296875 -15.28125 L 23.5625 -24.40625 Z M 23.5625 -17.625 "/></g></g></g><g fill="#103d79" fill-opacity="1"><g transform="translate(46.243078, 363.399689)"><g/></g></g><g fill="#103d79" fill-opacity="1"><g transform="translate(57.22225, 363.399689)"><g><path d="M 0.84375 0 L 8.484375 -33.953125 L 21.5625 -33.953125 L 29.203125 0 L 22.3125 0 L 20.96875 -6.140625 L 9.078125 -6.140625 L 7.734375 0 Z M 13.828125 -28.25 L 10.390625 -12.125 L 19.671875 -12.125 L 16.21875 -28.25 Z M 13.828125 -28.25 "/></g></g></g><g fill="#103d79" fill-opacity="1"><g transform="translate(87.265265, 363.399689)"><g><path d="M 14.125 -28.5625 C 10.5 -28.5625 8.6875 -27.363281 8.6875 -24.96875 C 8.6875 -23.894531 9.132812 -23.078125 10.03125 -22.515625 C 10.925781 -21.953125 13.03125 -21.132812 16.34375 -20.0625 C 19.65625 -19 21.976562 -17.789062 23.3125 -16.4375 C 24.644531 -15.09375 25.3125 -13.023438 25.3125 -10.234375 C 25.3125 -6.671875 24.226562 -3.972656 22.0625 -2.140625 C 19.90625 -0.316406 17.078125 0.59375 13.578125 0.59375 C 10.984375 0.59375 7.804688 0.195312 4.046875 -0.59375 L 2.25 -0.953125 L 2.953125 -6.296875 C 7.410156 -5.691406 10.816406 -5.390625 13.171875 -5.390625 C 16.703125 -5.390625 18.46875 -6.851562 18.46875 -9.78125 C 18.46875 -10.84375 18.0625 -11.671875 17.25 -12.265625 C 16.4375 -12.867188 14.8125 -13.523438 12.375 -14.234375 C 8.519531 -15.328125 5.800781 -16.628906 4.21875 -18.140625 C 2.632812 -19.660156 1.84375 -21.769531 1.84375 -24.46875 C 1.84375 -27.851562 2.875 -30.378906 4.9375 -32.046875 C 7 -33.710938 9.828125 -34.546875 13.421875 -34.546875 C 15.890625 -34.546875 19.019531 -34.210938 22.8125 -33.546875 L 24.609375 -33.203125 L 24.0625 -27.75 C 19.363281 -28.289062 16.050781 -28.5625 14.125 -28.5625 Z M 14.125 -28.5625 "/></g></g></g><g fill="#103d79" fill-opacity="1"><g transform="translate(114.413765, 363.399689)"><g><path d="M 0.84375 0 L 8.484375 -33.953125 L 21.5625 -33.953125 L 29.203125 0 L 22.3125 0 L 20.96875 -6.140625 L 9.078125 -6.140625 L 7.734375 0 Z M 13.828125 -28.25 L 10.390625 -12.125 L 19.671875 -12.125 L 16.21875 -28.25 Z M 13.828125 -28.25 "/></g></g></g><g fill="#103d79" fill-opacity="1"><g transform="translate(144.45678, 363.399689)"><g><path d="M 0.84375 0 L 8.484375 -33.953125 L 21.5625 -33.953125 L 29.203125 0 L 22.3125 0 L 20.96875 -6.140625 L 9.078125 -6.140625 L 7.734375 0 Z M 13.828125 -28.25 L 10.390625 -12.125 L 19.671875 -12.125 L 16.21875 -28.25 Z M 13.828125 -28.25 "/></g></g></g><g fill="#103d79" fill-opacity="1"><g transform="translate(174.499795, 363.399689)"><g/></g></g><g fill="#103d79" fill-opacity="1"><g transform="translate(185.478966, 363.399689)"><g><path d="M 1.546875 -0.40625 L 15.921875 -35.84375 L 21.8125 -33.75 L 7.4375 1.703125 Z M 1.546875 -0.40625 "/></g></g></g><g fill="#103d79" fill-opacity="1"><g transform="translate(208.734852, 363.399689)"><g><path d="M 17.421875 -12.6875 L 4.390625 -17.625 L 4.390625 -24.40625 L 24.65625 -15.28125 L 24.65625 -9.78125 L 4.390625 -0.5 L 4.390625 -7.28125 Z M 17.421875 -12.6875 "/></g></g></g></svg>